<?xml version="1.0" encoding="UTF-8"?>
<!-- Generator: Adobe Illustrator 16.0.4, SVG Export Plug-In . SVG Version: 6.00 Build 0)  -->
<!DOCTYPE svg PUBLIC "-//W3C//DTD SVG 1.1//EN" "http://www.w3.org/Graphics/SVG/1.1/DTD/svg11.dtd">
<svg version="1.1" id="Layer_1" xmlns="http://www.w3.org/2000/svg" xmlns:xlink="http://www.w3.org/1999/xlink" fill="#fff" x="0px" y="0px" width="619.5px" height="64px" viewBox="0 0 500.5 64" enable-background="new 0 0 619.5 64" xml:space="preserve">
<path fill="#fff" d="M34.904,62.988h-0.002c-2.705,0-16.864-6.422-25.063-10.252l-0.062-0.028  c-4.972-2.51-8.866-8.836-8.866-14.405V5.593l32.857-4.581l33.143,4.579v32.712c0,5.537-3.794,11.975-8.64,14.652l-0.079,0.041  C52.214,56,37.977,62.986,34.904,62.988L34.904,62.988z M11.785,48.656c9.861,4.604,21.104,9.481,23.132,9.806  c1.999-0.282,12.481-5.104,21.204-9.483c3.402-1.903,6.27-6.777,6.27-10.676V9.53l-28.62-3.953L5.432,9.528v28.774  C5.432,42.166,8.339,46.898,11.785,48.656z"/>
<path d="M23.016,45.646h4.287V14.96h-4.196v-0.812h11.19c5.147,0,10.247,0.541,10.247,8.033c0,3.658-2.03,6.723-5.916,7.354v0.09  c4.607,0.361,6.681,3.436,6.681,8.08c0,5.598-3.699,8.754-9.614,8.754H23.016V45.646z M28.296,29.312h5.869  c2.527,0,9.383-0.048,9.383-7.222c0-5.643-3.476-7.13-8.345-7.13h-6.907V29.312z M28.296,45.646h7.086  c2.754,0,8.936-0.634,8.936-8.123c0-6.186-4.65-7.399-7.9-7.399h-8.122V45.646z"/>
<path d="M35.696,48.077H21.398V44.03h4.287V16.578h-4.196v-4.049h12.808c4.146,0,11.864,0,11.864,9.651  c0,3.006-1.16,5.525-3.146,7.144c2.527,1.57,3.911,4.457,3.911,8.381C46.927,44.105,42.625,48.077,35.696,48.077z M29.914,44.03  h5.469c7.319,0,7.319-4.899,7.319-6.507c0-3.836-2.114-5.781-6.283-5.781h-6.504L29.914,44.03L29.914,44.03z M29.914,27.694h4.251  c5.442,0,7.764-1.675,7.764-5.604c0-4.019-1.82-5.512-6.727-5.512h-5.289L29.914,27.694L29.914,27.694z"/>
<g enable-background="new    ">
	<path d="M105.139,35.095h-9.905c-1.097,2.474-1.645,4.188-1.645,5.146c0,0.7,0.263,1.144,0.788,1.33   c0.525,0.186,1.312,0.278,2.362,0.278v1.4h-9.59v-1.4c0.56-0.068,1.044-0.162,1.453-0.278c0.408-0.117,0.77-0.28,1.085-0.49   s0.589-0.483,0.822-0.822c0.233-0.338,0.455-0.753,0.665-1.243l9.205-23.063h2.59l8.365,20.438c0.49,1.19,0.904,2.125,1.243,2.801   c0.338,0.678,0.7,1.195,1.085,1.558c0.385,0.362,0.828,0.613,1.33,0.753c0.501,0.141,1.149,0.245,1.942,0.314v1.436h-13.23v-1.436   c1.12-0.047,1.925-0.162,2.415-0.351c0.49-0.187,0.735-0.56,0.735-1.12c0-0.326-0.082-0.746-0.245-1.26   c-0.164-0.513-0.385-1.143-0.665-1.89L105.139,35.095z M96.039,32.995h8.33l-4.025-10.605h-0.14L96.039,32.995z"/>
	<path d="M124.948,37.475c0,0.98,0.023,1.75,0.07,2.312c0.046,0.56,0.175,0.985,0.385,1.276c0.21,0.293,0.513,0.484,0.91,0.578   c0.396,0.094,0.945,0.163,1.645,0.209v1.4h-11.06v-1.4c0.7-0.046,1.26-0.115,1.68-0.209s0.735-0.279,0.945-0.561   s0.35-0.684,0.42-1.208c0.07-0.524,0.105-1.229,0.105-2.117v-4.34c0-1.33-0.018-2.438-0.052-3.325   c-0.035-0.887-0.1-1.493-0.193-1.82c-0.07-0.303-0.157-0.542-0.262-0.717c-0.105-0.175-0.269-0.314-0.49-0.42   c-0.222-0.105-0.507-0.176-0.857-0.21c-0.35-0.035-0.805-0.053-1.365-0.053v-1.19l6.755-1.33l0.42,3.045h0.21   c0.98-1.096,1.965-1.878,2.958-2.345c0.992-0.466,2.141-0.7,3.448-0.7c1.54,0,2.812,0.269,3.815,0.806   c1.003,0.537,1.761,1.307,2.275,2.31h0.14c0.84-0.979,1.843-1.744,3.01-2.292c1.167-0.548,2.415-0.823,3.745-0.823   c1.4,0,2.619,0.176,3.657,0.525c1.038,0.349,1.849,0.852,2.433,1.505c0.467,0.537,0.811,1.237,1.033,2.101   c0.221,0.863,0.333,2.064,0.333,3.604v5.391c0,0.957,0.029,1.715,0.087,2.274s0.192,0.992,0.402,1.295   c0.21,0.304,0.513,0.502,0.91,0.595c0.396,0.094,0.945,0.164,1.645,0.211v1.399h-11.06v-1.399c0.7-0.022,1.254-0.088,1.663-0.192   c0.408-0.104,0.723-0.304,0.945-0.595c0.222-0.291,0.361-0.694,0.42-1.207c0.058-0.515,0.088-1.215,0.088-2.102V33.17   c0-1.213-0.07-2.24-0.21-3.08c-0.14-0.84-0.362-1.517-0.665-2.03c-0.304-0.513-0.706-0.88-1.208-1.103   c-0.502-0.221-1.115-0.332-1.838-0.332c-0.817,0-1.487,0.198-2.012,0.595c-0.525,0.397-0.962,0.91-1.312,1.54   c-0.607,1.098-0.91,2.462-0.91,4.096v4.619c0,0.957,0.023,1.717,0.07,2.275c0.047,0.559,0.175,0.992,0.385,1.295   c0.21,0.305,0.519,0.502,0.927,0.596c0.408,0.094,0.974,0.163,1.698,0.209v1.4h-11.095v-1.4c0.7-0.046,1.254-0.115,1.663-0.209   c0.408-0.094,0.723-0.279,0.945-0.561c0.221-0.28,0.361-0.684,0.42-1.208c0.058-0.524,0.087-1.229,0.087-2.117V33.17   c0-1.213-0.07-2.24-0.21-3.08c-0.14-0.84-0.368-1.517-0.683-2.03s-0.729-0.88-1.243-1.103c-0.513-0.221-1.155-0.332-1.925-0.332   s-1.406,0.188-1.908,0.56c-0.502,0.374-0.916,0.875-1.242,1.506c-0.304,0.56-0.537,1.201-0.7,1.925   c-0.164,0.724-0.245,1.47-0.245,2.239v4.619H124.948z"/>
	<path d="M157.603,43.25h-1.085v-6.37h1.47c0.396,1.681,0.968,2.905,1.715,3.675c0.746,0.771,1.715,1.155,2.905,1.155   c0.863,0,1.534-0.181,2.013-0.542c0.478-0.361,0.717-0.857,0.717-1.488c0-0.652-0.292-1.289-0.875-1.906   c-0.583-0.618-1.528-1.277-2.835-1.979c-1.773-0.956-3.045-1.907-3.815-2.854c-0.77-0.945-1.155-2.013-1.155-3.201   c0-0.771,0.146-1.487,0.438-2.152c0.292-0.665,0.688-1.243,1.19-1.732c0.501-0.49,1.102-0.869,1.802-1.138   c0.7-0.269,1.458-0.402,2.275-0.402c0.723,0,1.44,0.104,2.153,0.314c0.711,0.21,1.335,0.502,1.872,0.875l0.63-0.84h0.91v5.285   h-1.365c-0.537-1.33-1.091-2.287-1.663-2.87c-0.572-0.583-1.266-0.875-2.083-0.875c-0.653,0-1.172,0.175-1.558,0.525   c-0.385,0.35-0.577,0.816-0.577,1.399c0,0.653,0.285,1.272,0.857,1.855c0.571,0.583,1.522,1.225,2.853,1.925   c0.933,0.514,1.738,1.015,2.415,1.505c0.676,0.49,1.225,0.986,1.645,1.486c0.42,0.502,0.729,1.027,0.927,1.576   c0.198,0.549,0.297,1.138,0.297,1.768c0,0.816-0.152,1.552-0.455,2.205c-0.304,0.652-0.735,1.213-1.295,1.68   c-0.56,0.467-1.231,0.829-2.012,1.085c-0.782,0.257-1.651,0.386-2.607,0.386c-1.004,0-1.937-0.135-2.8-0.402   c-0.863-0.269-1.575-0.659-2.135-1.172L157.603,43.25z"/>
	<path d="M171.812,26.625V25.05c1.4-0.396,2.572-0.997,3.518-1.803c0.945-0.805,1.65-1.732,2.117-2.782h1.785V24.7h4.025v1.925   h-4.025V37.37c0,1.446,0.158,2.474,0.473,3.08s0.845,0.909,1.592,0.909c0.91,0,1.598-0.42,2.065-1.26l0.735,1.016   c-0.654,1.656-2.194,2.484-4.62,2.484c-1.61,0-2.865-0.373-3.763-1.119c-0.898-0.748-1.347-1.797-1.347-3.15V26.625H171.812z"/>
	<path d="M203.207,39.995c-2.124,2.403-4.772,3.604-7.945,3.604c-1.447,0-2.76-0.229-3.938-0.683   c-1.179-0.455-2.188-1.097-3.027-1.926c-0.84-0.828-1.494-1.813-1.96-2.957s-0.7-2.415-0.7-3.815c0-1.445,0.245-2.771,0.735-3.973   c0.49-1.201,1.184-2.239,2.083-3.114c0.898-0.875,1.96-1.558,3.185-2.048s2.572-0.735,4.042-0.735c2.473,0,4.398,0.665,5.775,1.995   c1.376,1.33,2.065,3.197,2.065,5.601c0,0.373-0.059,0.601-0.175,0.683c-0.117,0.082-0.443,0.122-0.98,0.122h-11.27   c-0.094,0.21-0.14,0.595-0.14,1.155c0,2.286,0.496,4.095,1.488,5.425c0.991,1.33,2.339,1.995,4.042,1.995   c0.98,0,1.954-0.222,2.922-0.665c0.968-0.443,1.907-1.073,2.817-1.891L203.207,39.995z M196.417,30.79   c0.933,0,1.534-0.053,1.803-0.157c0.269-0.105,0.402-0.355,0.402-0.753c0-1.026-0.292-1.866-0.875-2.52   c-0.583-0.653-1.318-0.98-2.205-0.98c-1.003,0-1.896,0.415-2.677,1.242c-0.782,0.829-1.29,1.885-1.522,3.168H196.417z"/>
	<path d="M213.812,37.825c0,0.909,0.039,1.627,0.121,2.151c0.082,0.525,0.252,0.929,0.508,1.207c0.258,0.28,0.632,0.463,1.121,0.543   c0.489,0.082,1.144,0.123,1.959,0.123v1.399h-11.689V41.85c0.7-0.047,1.26-0.117,1.68-0.211c0.42-0.093,0.735-0.279,0.945-0.56   c0.209-0.28,0.344-0.683,0.402-1.208c0.059-0.523,0.089-1.23,0.089-2.117v-4.27c0-1.447-0.035-2.603-0.105-3.466   c-0.069-0.862-0.223-1.527-0.455-1.994c-0.233-0.467-0.566-0.775-0.998-0.928c-0.432-0.151-0.998-0.228-1.697-0.228v-1.226l7-1.295   l0.561,4.025h0.141c0.629-1.236,1.457-2.217,2.484-2.94c1.025-0.723,2.111-1.085,3.255-1.085c0.886,0,1.61,0.223,2.17,0.665   c0.561,0.444,0.841,1.004,0.841,1.681c0,0.747-0.217,1.377-0.647,1.89c-0.433,0.514-1.021,0.771-1.769,0.771   c-0.35,0-0.664-0.07-0.944-0.211c-0.279-0.14-0.531-0.297-0.752-0.472c-0.224-0.176-0.443-0.338-0.665-0.49   c-0.223-0.151-0.45-0.228-0.684-0.228c-0.442,0-0.863,0.292-1.26,0.875s-0.724,1.365-0.98,2.345   c-0.187,0.7-0.338,1.487-0.454,2.362c-0.117,0.875-0.175,1.745-0.175,2.607v1.683H213.812z"/>
	<path d="M238.871,41.01h-0.141c-1.609,1.729-3.697,2.59-6.265,2.59c-1.33,0-2.55-0.232-3.657-0.699s-2.064-1.119-2.869-1.959   c-0.806-0.842-1.431-1.838-1.873-2.993c-0.443-1.154-0.664-2.433-0.664-3.832c0-1.4,0.227-2.695,0.682-3.885   s1.073-2.223,1.855-3.098c0.78-0.875,1.715-1.558,2.8-2.048s2.257-0.735,3.518-0.735c1.167,0,2.198,0.176,3.097,0.525   c0.899,0.349,1.687,0.945,2.363,1.785h0.141v-2.976c0-1.376-0.018-2.56-0.053-3.552c-0.035-0.992-0.088-1.64-0.158-1.942   c-0.116-0.49-0.473-0.846-1.066-1.068c-0.596-0.221-1.512-0.332-2.747-0.332V15.6l8.854-1.399v20.02   c0,1.75,0.018,3.098,0.053,4.043c0.033,0.944,0.099,1.662,0.191,2.152c0.047,0.304,0.117,0.549,0.211,0.734   c0.092,0.187,0.232,0.332,0.42,0.438c0.187,0.104,0.438,0.175,0.752,0.21c0.314,0.034,0.718,0.053,1.207,0.053v1.364l-6.649,0.386   L238.871,41.01L238.871,41.01z M237.787,33.205c0-0.887-0.094-1.709-0.28-2.468c-0.187-0.758-0.468-1.429-0.841-2.013   c-0.42-0.676-0.957-1.189-1.609-1.54c-0.652-0.35-1.354-0.524-2.1-0.524c-1.377,0-2.428,0.63-3.15,1.89   c-0.724,1.26-1.084,3.092-1.084,5.495c0,2.428,0.36,4.294,1.084,5.6c0.724,1.309,1.762,1.961,3.115,1.961   c0.77,0,1.505-0.197,2.205-0.596c0.699-0.396,1.271-0.933,1.715-1.609c0.326-0.514,0.565-1.148,0.717-1.907   c0.152-0.759,0.229-1.732,0.229-2.922L237.787,33.205L237.787,33.205z"/>
	<path d="M258.366,31.42v-1.47c0-1.354-0.239-2.339-0.718-2.958c-0.479-0.617-1.219-0.927-2.224-0.927   c-0.677,0-1.188,0.181-1.539,0.542c-0.351,0.362-0.678,0.963-0.979,1.803c-0.211,0.583-0.508,1.038-0.893,1.365   c-0.386,0.326-0.916,0.489-1.593,0.489c-0.653,0-1.155-0.197-1.506-0.595c-0.351-0.396-0.524-0.956-0.524-1.68   c0-1.12,0.612-2.007,1.838-2.66c1.225-0.653,3.073-0.98,5.547-0.98c2.613,0,4.479,0.473,5.601,1.418s1.681,2.526,1.681,4.742v7.665   c0,1.983,0.396,2.977,1.189,2.977c0.443,0,0.852-0.152,1.225-0.455l0.525,1.015c-0.327,0.584-0.834,1.045-1.521,1.383   c-0.688,0.339-1.465,0.507-2.328,0.507c-1.073,0-1.891-0.326-2.449-0.979c-0.56-0.653-0.842-1.575-0.842-2.766h-0.174   c-0.678,1.213-1.553,2.136-2.625,2.766c-1.074,0.63-2.299,0.945-3.676,0.945c-1.47,0-2.648-0.414-3.535-1.243   c-0.887-0.828-1.33-1.907-1.33-3.237c0-1.025,0.455-1.988,1.365-2.888c0.91-0.897,2.428-1.778,4.551-2.644L258.366,31.42z    M258.366,33.275c-1.96,0.887-3.437,1.709-4.429,2.467c-0.99,0.759-1.486,1.546-1.486,2.363c0,0.677,0.188,1.213,0.561,1.608   c0.373,0.397,0.84,0.595,1.399,0.595s1.085-0.099,1.575-0.297c0.49-0.197,0.91-0.461,1.26-0.787s0.624-0.718,0.822-1.173   c0.197-0.454,0.298-0.938,0.298-1.452V33.275z"/>
	<path d="M275.445,37.475c0,0.98,0.022,1.75,0.07,2.312c0.047,0.56,0.174,0.985,0.385,1.276c0.209,0.293,0.514,0.484,0.91,0.578   c0.396,0.094,0.944,0.163,1.645,0.209v1.4h-11.061v-1.4c0.701-0.046,1.262-0.115,1.682-0.209s0.734-0.279,0.943-0.561   c0.211-0.281,0.352-0.684,0.42-1.208c0.07-0.524,0.104-1.229,0.104-2.117v-4.34c0-1.33-0.019-2.438-0.052-3.325   c-0.035-0.887-0.1-1.493-0.192-1.82c-0.069-0.303-0.157-0.542-0.263-0.717c-0.105-0.175-0.27-0.314-0.49-0.42   c-0.222-0.105-0.507-0.176-0.857-0.21c-0.351-0.035-0.805-0.053-1.363-0.053v-1.19l6.754-1.33l0.42,3.045h0.211   c0.979-1.096,1.965-1.878,2.957-2.345c0.992-0.466,2.141-0.7,3.447-0.7c1.541,0,2.812,0.269,3.814,0.806   c1.004,0.537,1.762,1.307,2.274,2.31h0.142c0.84-0.979,1.842-1.744,3.01-2.292c1.166-0.548,2.414-0.823,3.744-0.823   c1.399,0,2.619,0.176,3.657,0.525s1.851,0.852,2.434,1.505c0.467,0.537,0.811,1.237,1.031,2.101   c0.222,0.864,0.333,2.064,0.333,3.604v5.391c0,0.957,0.028,1.715,0.088,2.274c0.059,0.56,0.192,0.992,0.401,1.295   c0.211,0.304,0.515,0.502,0.91,0.595c0.396,0.094,0.945,0.164,1.646,0.211v1.399h-11.06v-1.399   c0.699-0.022,1.254-0.088,1.662-0.192s0.723-0.304,0.944-0.595s0.361-0.694,0.421-1.207c0.058-0.515,0.088-1.215,0.088-2.102V33.17   c0-1.213-0.07-2.24-0.211-3.08c-0.14-0.84-0.361-1.517-0.664-2.03c-0.306-0.513-0.707-0.88-1.208-1.103   c-0.503-0.221-1.114-0.332-1.838-0.332c-0.817,0-1.487,0.198-2.014,0.595c-0.523,0.397-0.961,0.91-1.312,1.54   c-0.606,1.098-0.91,2.462-0.91,4.096v4.619c0,0.957,0.022,1.717,0.07,2.275c0.047,0.559,0.176,0.992,0.385,1.295   c0.211,0.305,0.521,0.502,0.928,0.596c0.408,0.094,0.976,0.163,1.697,0.209v1.4h-11.095v-1.4c0.699-0.046,1.255-0.115,1.662-0.209   c0.408-0.094,0.724-0.279,0.945-0.561c0.221-0.28,0.361-0.684,0.42-1.208c0.058-0.524,0.088-1.229,0.088-2.117V33.17   c0-1.213-0.069-2.24-0.211-3.08c-0.141-0.84-0.367-1.517-0.683-2.03s-0.729-0.88-1.243-1.103c-0.513-0.221-1.154-0.332-1.924-0.332   c-0.771,0-1.406,0.188-1.908,0.56c-0.502,0.374-0.916,0.875-1.242,1.506c-0.304,0.56-0.537,1.201-0.699,1.925   c-0.164,0.724-0.245,1.47-0.245,2.239L275.445,37.475L275.445,37.475z"/>
	<path d="M315.59,43.25v-1.4c0.793-0.021,1.43-0.093,1.908-0.209c0.478-0.117,0.852-0.314,1.119-0.596   c0.269-0.279,0.449-0.677,0.543-1.189c0.093-0.514,0.141-1.179,0.141-1.994V21.69c0-0.817-0.035-1.476-0.104-1.978   c-0.07-0.502-0.218-0.898-0.438-1.19c-0.223-0.291-0.524-0.49-0.91-0.595c-0.385-0.104-0.893-0.181-1.521-0.228v-1.4h11.234   c3.522,0,6.234,0.566,8.138,1.697c1.901,1.133,2.854,2.748,2.854,4.848c0,2.777-1.996,4.737-5.985,5.88v0.141   c1.282,0,2.444,0.181,3.481,0.542c1.039,0.362,1.92,0.87,2.644,1.521c0.723,0.654,1.282,1.424,1.68,2.312   c0.396,0.887,0.596,1.854,0.596,2.904c0,1.189-0.285,2.229-0.856,3.114c-0.572,0.888-1.396,1.634-2.468,2.24   c-2.078,1.167-4.936,1.75-8.575,1.75L315.59,43.25L315.59,43.25z M326.51,28.025c1.051,0,1.961-0.1,2.73-0.298   c0.769-0.198,1.423-0.484,1.96-0.857c1.12-0.771,1.68-1.972,1.68-3.605c0-1.702-0.42-2.934-1.26-3.692   c-0.84-0.758-2.193-1.138-4.061-1.138h-2.484c-0.42,0-0.63,0.199-0.63,0.596v8.995L326.51,28.025L326.51,28.025z M329.311,41.115   c3.757,0,5.636-1.691,5.636-5.075c0-2.076-0.679-3.593-2.03-4.55c-0.7-0.49-1.604-0.84-2.712-1.05   c-1.109-0.21-2.469-0.315-4.078-0.315h-1.68v7c0,1.447,0.373,2.475,1.119,3.08C326.312,40.812,327.561,41.115,329.311,41.115z"/>
	<path d="M353.811,24.35c1.399,0,2.725,0.24,3.973,0.718c1.248,0.479,2.346,1.138,3.29,1.978s1.69,1.838,2.239,2.992   c0.549,1.155,0.822,2.422,0.822,3.798c0,1.424-0.273,2.73-0.822,3.92c-0.549,1.19-1.295,2.217-2.239,3.08s-2.042,1.54-3.29,2.03   c-1.248,0.489-2.572,0.733-3.973,0.733c-1.378,0-2.684-0.238-3.921-0.717c-1.235-0.479-2.32-1.148-3.255-2.013   c-0.934-0.864-1.668-1.896-2.205-3.099c-0.537-1.2-0.805-2.514-0.805-3.938c0-1.376,0.268-2.647,0.805-3.815   c0.537-1.166,1.271-2.17,2.205-3.01c0.935-0.84,2.02-1.493,3.255-1.96C351.127,24.584,352.433,24.35,353.811,24.35z M353.811,26.38   c-0.699,0-1.343,0.181-1.926,0.543c-0.583,0.361-1.079,0.869-1.486,1.522c-0.408,0.653-0.725,1.44-0.945,2.362   c-0.221,0.922-0.332,1.942-0.332,3.062c0,1.167,0.109,2.217,0.332,3.148c0.222,0.935,0.537,1.729,0.945,2.381   c0.407,0.653,0.897,1.16,1.47,1.522c0.572,0.361,1.22,0.542,1.942,0.542c0.724,0,1.383-0.181,1.978-0.542   c0.596-0.362,1.103-0.875,1.522-1.54c0.421-0.665,0.746-1.464,0.979-2.396c0.233-0.934,0.35-1.973,0.35-3.115   c0-1.12-0.115-2.135-0.35-3.045c-0.234-0.91-0.56-1.697-0.979-2.362c-0.421-0.665-0.928-1.179-1.522-1.54   C355.192,26.561,354.533,26.38,353.811,26.38z"/>
	<path d="M377.47,31.42v-1.47c0-1.354-0.239-2.339-0.718-2.958c-0.479-0.617-1.22-0.927-2.223-0.927   c-0.678,0-1.189,0.181-1.54,0.542c-0.351,0.362-0.677,0.963-0.979,1.803c-0.21,0.583-0.508,1.038-0.893,1.365   c-0.385,0.326-0.916,0.489-1.593,0.489c-0.653,0-1.154-0.197-1.505-0.595c-0.351-0.396-0.524-0.956-0.524-1.68   c0-1.12,0.612-2.007,1.837-2.66c1.226-0.653,3.074-0.98,5.548-0.98c2.612,0,4.479,0.473,5.601,1.418s1.681,2.526,1.681,4.742v7.665   c0,1.983,0.396,2.977,1.188,2.977c0.443,0,0.853-0.152,1.226-0.455l0.524,1.015c-0.326,0.584-0.834,1.045-1.521,1.383   c-0.688,0.339-1.465,0.507-2.327,0.507c-1.074,0-1.891-0.326-2.45-0.979c-0.561-0.653-0.84-1.575-0.84-2.766h-0.175   c-0.678,1.213-1.553,2.136-2.625,2.766c-1.074,0.63-2.299,0.945-3.676,0.945c-1.471,0-2.648-0.414-3.535-1.243   c-0.887-0.828-1.329-1.907-1.329-3.237c0-1.025,0.454-1.988,1.364-2.888c0.909-0.897,2.427-1.778,4.551-2.644L377.47,31.42z    M377.47,33.275c-1.96,0.887-3.437,1.709-4.428,2.467c-0.992,0.759-1.487,1.546-1.487,2.363c0,0.677,0.188,1.213,0.561,1.608   c0.373,0.397,0.841,0.595,1.399,0.595c0.56,0,1.085-0.099,1.575-0.297c0.49-0.197,0.91-0.461,1.26-0.787   c0.351-0.326,0.624-0.718,0.822-1.173c0.198-0.454,0.298-0.938,0.298-1.452V33.275z"/>
	<path d="M386.395,26.625V25.05c1.4-0.396,2.572-0.997,3.519-1.803c0.945-0.805,1.649-1.732,2.117-2.782h1.785V24.7h4.024v1.925   h-4.024V37.37c0,1.446,0.156,2.474,0.473,3.08c0.313,0.606,0.846,0.909,1.593,0.909c0.909,0,1.598-0.42,2.064-1.26l0.734,1.016   c-0.652,1.656-2.192,2.484-4.62,2.484c-1.609,0-2.863-0.373-3.763-1.119c-0.898-0.748-1.348-1.797-1.348-3.15V26.625H386.395z"/>
	<path d="M401.863,43.25h-1.085v-6.37h1.471c0.396,1.681,0.968,2.905,1.715,3.675c0.746,0.771,1.715,1.155,2.905,1.155   c0.862,0,1.533-0.181,2.012-0.542c0.479-0.361,0.718-0.857,0.718-1.488c0-0.652-0.292-1.289-0.875-1.906   c-0.583-0.618-1.527-1.277-2.835-1.979c-1.772-0.956-3.045-1.907-3.814-2.854c-0.771-0.944-1.154-2.013-1.154-3.201   c0-0.771,0.146-1.487,0.438-2.152c0.291-0.665,0.688-1.243,1.188-1.732c0.502-0.49,1.104-0.869,1.803-1.138   c0.7-0.269,1.458-0.402,2.275-0.402c0.723,0,1.44,0.104,2.152,0.314c0.711,0.21,1.335,0.502,1.872,0.875l0.63-0.84h0.91v5.285   h-1.365c-0.536-1.33-1.091-2.287-1.662-2.87c-0.572-0.583-1.266-0.875-2.082-0.875c-0.654,0-1.173,0.175-1.558,0.525   c-0.387,0.35-0.578,0.816-0.578,1.399c0,0.653,0.286,1.272,0.856,1.855c0.572,0.583,1.522,1.225,2.854,1.925   c0.934,0.514,1.737,1.015,2.415,1.505c0.677,0.49,1.226,0.986,1.646,1.486c0.42,0.502,0.729,1.027,0.928,1.576   c0.197,0.549,0.298,1.138,0.298,1.768c0,0.816-0.151,1.552-0.455,2.205c-0.305,0.652-0.734,1.213-1.295,1.68   s-1.23,0.829-2.014,1.085c-0.78,0.257-1.649,0.386-2.606,0.386c-1.003,0-1.938-0.135-2.801-0.402   c-0.862-0.269-1.574-0.659-2.135-1.172L401.863,43.25z"/>
</g>
<g>
	<path d="M433.792,43.249h-1.71V20.571h-7.886v-1.594h17.481v1.594h-7.886V43.249z"/>
	<path d="M444.633,20.189c0-1.062,0.349-1.594,1.046-1.594c0.343,0,0.611,0.139,0.806,0.415c0.193,0.277,0.29,0.67,0.29,1.179   c0,0.498-0.097,0.891-0.29,1.179c-0.194,0.288-0.463,0.432-0.806,0.432C444.981,21.8,444.633,21.263,444.633,20.189z    M446.509,43.249h-1.644V25.203h1.644V43.249z"/>
	<path d="M459.757,43.581c-2.579,0-4.599-0.813-6.06-2.44s-2.191-3.896-2.191-6.807c0-2.988,0.758-5.315,2.274-6.981   c1.517-1.666,3.592-2.499,6.226-2.499c1.561,0,3.055,0.271,4.482,0.813l-0.448,1.461c-1.561-0.52-2.916-0.78-4.067-0.78   c-2.214,0-3.891,0.684-5.03,2.05c-1.14,1.367-1.71,3.334-1.71,5.902c0,2.435,0.57,4.341,1.71,5.72   c1.14,1.377,2.733,2.066,4.781,2.066c1.638,0,3.16-0.293,4.565-0.88v1.527C463.138,43.299,461.627,43.581,459.757,43.581z"/>
	<path d="M470.315,35.33l9.214-10.127h1.992l-7.105,7.703l7.72,10.343h-1.976l-6.856-9.114l-2.955,2.689v6.425h-1.644V17.417h1.644   v12.949l-0.116,4.964H470.315z"/>
	<path d="M492.445,43.581c-2.623,0-4.668-0.808-6.134-2.424c-1.467-1.616-2.2-3.879-2.2-6.79c0-2.877,0.708-5.182,2.125-6.915   c1.417-1.732,3.326-2.598,5.728-2.598c2.125,0,3.802,0.742,5.03,2.225c1.229,1.483,1.843,3.498,1.843,6.043v1.328h-12.999   c0.022,2.479,0.601,4.372,1.735,5.678c1.134,1.306,2.758,1.959,4.872,1.959c1.029,0,1.935-0.072,2.714-0.216   c0.781-0.144,1.769-0.454,2.964-0.93v1.494c-1.019,0.442-1.959,0.744-2.822,0.905C494.438,43.501,493.485,43.581,492.445,43.581z    M491.964,26.315c-1.737,0-3.132,0.573-4.184,1.718s-1.666,2.797-1.843,4.956h11.156c0-2.092-0.454-3.727-1.361-4.906   S493.568,26.315,491.964,26.315z"/>
	<path d="M508.582,42.12c1.04,0,1.948-0.089,2.723-0.266v1.328c-0.797,0.266-1.716,0.398-2.756,0.398   c-1.594,0-2.77-0.426-3.528-1.278c-0.758-0.853-1.137-2.191-1.137-4.018V26.631h-2.673v-0.963l2.673-0.747l0.83-4.084h0.847v4.366   h5.296v1.428h-5.296v11.422c0,1.384,0.243,2.407,0.73,3.071S507.542,42.12,508.582,42.12z"/>
	<path d="M526.396,38.551c0,1.616-0.614,2.858-1.843,3.728c-1.229,0.868-2.972,1.303-5.229,1.303c-2.413,0-4.327-0.371-5.744-1.112   v-1.776c1.815,0.907,3.729,1.361,5.744,1.361c1.782,0,3.135-0.296,4.059-0.889c0.925-0.592,1.387-1.38,1.387-2.365   c0-0.907-0.368-1.671-1.104-2.291c-0.736-0.62-1.945-1.229-3.628-1.826c-1.804-0.653-3.071-1.214-3.802-1.685   s-1.281-1.002-1.652-1.594c-0.37-0.592-0.556-1.314-0.556-2.167c0-1.35,0.567-2.418,1.702-3.204   c1.134-0.786,2.72-1.179,4.756-1.179c1.948,0,3.796,0.365,5.545,1.096l-0.614,1.494c-1.771-0.73-3.414-1.096-4.931-1.096   c-1.472,0-2.64,0.244-3.503,0.73c-0.863,0.487-1.295,1.162-1.295,2.025c0,0.941,0.335,1.693,1.005,2.258   c0.669,0.564,1.978,1.195,3.926,1.893c1.627,0.587,2.812,1.115,3.553,1.586c0.741,0.47,1.298,1.004,1.668,1.602   C526.21,37.04,526.396,37.743,526.396,38.551z"/>
</g>
</svg>