<svg id="Layer_1" data-name="Layer 1" xmlns="http://www.w3.org/2000/svg" viewBox="0 0 219.45 31.96"><defs><style>.cls-1{fill:#fff;}.cls-2{isolation:isolate;}</style></defs><path id="Path_1" data-name="Path 1" class="cls-1" d="M33.72,6.67h8.42V0H33.72A16,16,0,0,0,18.38,11.47,24.43,24.43,0,0,1,19,7a4.2,4.2,0,0,0-1.15-4A15.9,15.9,0,0,0,8.42,0H0V6.67H8.42a9.31,9.31,0,0,1,0,18.62H0V32H8.42A16,16,0,0,0,23.76,20.5a24.66,24.66,0,0,1-.58,4.44,4.22,4.22,0,0,0,1.15,4A15.84,15.84,0,0,0,33.72,32h8.42V25.29H33.72a9.31,9.31,0,0,1,0-18.61Z"/><g id="Designcourse" class="cls-2"><g class="cls-2"><path class="cls-1" d="M79.84,16.28c0,4.57-3.17,7.72-8.1,7.72H66V8.55h5.78C76.67,8.55,79.84,11.68,79.84,16.28ZM71.5,20.74c2.84,0,4.51-1.63,4.51-4.46a4.13,4.13,0,0,0-4.51-4.51H69.72v9Z"/><path class="cls-1" d="M87.41,24.17a5.92,5.92,0,0,1-6.21-6.31,5.9,5.9,0,0,1,6.21-6.32,5.79,5.79,0,0,1,6.11,6.12,10.42,10.42,0,0,1-.06,1.1H84.94a2.28,2.28,0,0,0,2.33,2.36,2,2,0,0,0,2-1.19h4A5.73,5.73,0,0,1,87.41,24.17ZM85,16.67h4.71a2.12,2.12,0,0,0-2.31-2.11A2.33,2.33,0,0,0,85,16.67Z"/><path class="cls-1" d="M100.5,24.17c-3.28,0-5.48-1.82-5.66-4.2h3.72a1.72,1.72,0,0,0,1.89,1.43c1,0,1.48-.44,1.48-1,0-2-6.69-.55-6.69-5.06,0-2.09,1.78-3.81,5-3.81s4.93,1.77,5.17,4.19h-3.47a1.62,1.62,0,0,0-1.81-1.39c-.88,0-1.36.35-1.36.95,0,1.95,6.64.57,6.71,5.14C105.47,22.57,103.58,24.17,100.5,24.17Z"/><path class="cls-1" d="M107.43,8.42a2.24,2.24,0,1,1,2.24,2A2.08,2.08,0,0,1,107.43,8.42Zm.35,3.3h3.76V24h-3.76Z"/><path class="cls-1" d="M118.93,11.54a4.26,4.26,0,0,1,3.79,1.92V11.72h3.76V24c0,3.28-1.89,6.07-6.14,6.07-3.65,0-6-1.85-6.36-4.77h3.72a2.31,2.31,0,0,0,2.46,1.51c1.44,0,2.56-.75,2.56-2.81V22.24a4.33,4.33,0,0,1-3.79,1.93c-3,0-5.41-2.46-5.41-6.33S115.92,11.54,118.93,11.54Zm1.1,3.28a2.73,2.73,0,0,0-2.68,3,2.71,2.71,0,1,0,5.37,0A2.75,2.75,0,0,0,120,14.82Z"/><path class="cls-1" d="M137.68,17.33a2.37,2.37,0,1,0-4.71,0V24h-3.76V11.72H133v1.63a4.52,4.52,0,0,1,3.72-1.76c2.84,0,4.73,1.94,4.73,5.24V24h-3.74Z"/><path class="cls-1" d="M149.45,11.54a5.62,5.62,0,0,1,5.89,4.63h-4a2,2,0,0,0-2-1.41c-1.34,0-2.27,1.05-2.27,3.1S148,21,149.38,21a1.91,1.91,0,0,0,2-1.41h4a5.69,5.69,0,0,1-5.89,4.62c-3.61,0-6.16-2.42-6.16-6.31S145.84,11.54,149.45,11.54Z"/><path class="cls-1" d="M162.93,24.17a6,6,0,0,1-6.33-6.31,6.38,6.38,0,0,1,12.76,0A6.09,6.09,0,0,1,162.93,24.17Zm0-3.25c1.34,0,2.6-1,2.6-3.06S164.3,14.8,163,14.8s-2.56,1-2.56,3.06S161.57,20.92,162.93,20.92Z"/><path class="cls-1" d="M183.48,24h-3.76V22.33a4.49,4.49,0,0,1-3.72,1.8c-2.84,0-4.75-2-4.75-5.24V11.72H175v6.67a2.37,2.37,0,1,0,4.73,0V11.72h3.76Z"/><path class="cls-1" d="M190,24h-3.76V11.72H190v2a4.58,4.58,0,0,1,3.85-2.18v4h-1c-1.78,0-2.81.62-2.81,2.73Z"/><path class="cls-1" d="M200.6,24.17c-3.28,0-5.48-1.82-5.66-4.2h3.72a1.72,1.72,0,0,0,1.89,1.43c1,0,1.48-.44,1.48-1,0-2-6.69-.55-6.69-5.06,0-2.09,1.78-3.81,5-3.81s4.93,1.77,5.17,4.19H202a1.62,1.62,0,0,0-1.81-1.39c-.88,0-1.36.35-1.36.95,0,1.95,6.64.57,6.71,5.14C205.57,22.57,203.68,24.17,200.6,24.17Z"/><path class="cls-1" d="M213.33,24.17a5.92,5.92,0,0,1-6.2-6.31c0-3.89,2.55-6.32,6.2-6.32a5.79,5.79,0,0,1,6.12,6.12,8.33,8.33,0,0,1-.07,1.1h-8.51a2.28,2.28,0,0,0,2.33,2.36,2,2,0,0,0,2-1.19h4A5.73,5.73,0,0,1,213.33,24.17Zm-2.44-7.5h4.71a2.12,2.12,0,0,0-2.31-2.11A2.33,2.33,0,0,0,210.89,16.67Z"/></g></g></svg>