<svg id="Layer_1" data-name="Layer 1" xmlns="http://www.w3.org/2000/svg" viewBox="0 0 206.97 73.17"><defs><style>.cls-1,.cls-2{fill:#9d6ff3;}.cls-1{fill-opacity:0;}.cls-3{isolation:isolate;}.cls-4{fill:#fff;}</style></defs><g id="logo"><rect class="cls-1" width="58.21" height="73.17"/><path class="cls-2" d="M9.12,11.64c-1.93,1-.24,3.92,1.69,2.91C15.71,12,21.7,12.08,27,13.5c4.5,1.22,9,3.65,11.63,7.64,1.19,1.83,4.09.14,2.91-1.69C35.1,9.54,19.3,6.36,9.12,11.64Z"/><path class="cls-2" d="M46.3,15.29C42.54,9.44,36.08,5.79,29.52,4,22,1.89,13.38,2,6.31,5.65,4.38,6.67,6.07,9.57,8,8.56c6.26-3.28,13.94-3.15,20.57-1.32C34.25,8.8,40.07,11.91,43.32,17,44.54,18.84,47.45,17.15,46.3,15.29Z"/><path class="cls-2" d="M20.45,16.17A19.63,19.63,0,0,0,8.14,20.4H2.66A2.44,2.44,0,0,0,.12,22.73v44.9a2.61,2.61,0,0,0,2.54,2.53H8.2a2.5,2.5,0,0,0,2.4-2.53V54a20.18,20.18,0,1,0,9.85-37.79Zm0,31.53a11.4,11.4,0,1,1,11.4-11.4A11.4,11.4,0,0,1,20.45,47.7Z"/></g><g id="Pretendo" class="cls-3"><g class="cls-3"><path class="cls-4" d="M69,39h-3.4v8.06H60.12V24.63H69c5.5,0,8.25,3.11,8.25,7.23C77.24,35.57,74.71,39,69,39Zm-.42-4.35c2.18,0,3.1-1.09,3.1-2.82s-.92-2.81-3.1-2.81h-3v5.63Z"/><path class="cls-4" d="M85.56,47.09H80.09V29.24h5.47v3a6.67,6.67,0,0,1,5.6-3.16v5.79h-1.5c-2.59,0-4.1.89-4.1,4Z"/><path class="cls-4" d="M101.72,47.35c-5.25,0-9-3.52-9-9.18s3.71-9.19,9-9.19,8.9,3.46,8.9,8.9a14.93,14.93,0,0,1-.1,1.6H98.14c.19,2.33,1.63,3.42,3.39,3.42a2.92,2.92,0,0,0,2.85-1.73h5.82C109.34,44.66,106.17,47.35,101.72,47.35ZM98.17,36.44H105a3.09,3.09,0,0,0-3.36-3.07A3.39,3.39,0,0,0,98.17,36.44Z"/><path class="cls-4" d="M114.36,33.78h-2.17V29.24h2.17V24.89h5.47v4.35h3.59v4.54h-3.59V41c0,1.06.45,1.5,1.67,1.5h2v4.64h-2.78c-3.72,0-6.31-1.56-6.31-6.2Z"/><path class="cls-4" d="M134.42,47.35c-5.24,0-9-3.52-9-9.18s3.71-9.19,9-9.19,8.9,3.46,8.9,8.9a12.72,12.72,0,0,1-.1,1.6H130.84c.19,2.33,1.63,3.42,3.39,3.42a2.91,2.91,0,0,0,2.85-1.73h5.82C142,44.66,138.87,47.35,134.42,47.35Zm-3.55-10.91h6.85a3.09,3.09,0,0,0-3.36-3.07A3.39,3.39,0,0,0,130.87,36.44Z"/><path class="cls-4" d="M158.52,37.4c0-2.43-1.34-3.78-3.42-3.78s-3.43,1.35-3.43,3.78v9.69H146.2V29.24h5.47v2.37a6.54,6.54,0,0,1,5.41-2.56c4.13,0,6.88,2.81,6.88,7.61V47.09h-5.44Z"/><path class="cls-4" d="M174.55,29a6.57,6.57,0,0,1,5.51,2.72V23.42h5.47V47.09h-5.47V44.53a6.17,6.17,0,0,1-5.51,2.82c-4.38,0-7.87-3.58-7.87-9.22S170.17,29,174.55,29Zm1.6,4.77c-2.05,0-3.9,1.54-3.9,4.38s1.85,4.45,3.9,4.45,3.91-1.57,3.91-4.41S178.23,33.75,176.15,33.75Z"/><path class="cls-4" d="M197.62,47.35c-5.24,0-9.21-3.52-9.21-9.18S192.47,29,197.69,29,207,32.5,207,38.17,202.87,47.35,197.62,47.35Zm0-4.74c2,0,3.78-1.44,3.78-4.44s-1.79-4.45-3.71-4.45S194,35.13,194,38.17,195.64,42.61,197.62,42.61Z"/></g></g></svg>